<svg xmlns="http://www.w3.org/2000/svg" xmlns:xlink="http://www.w3.org/1999/xlink" viewBox="0 0 485.08 282.6"><defs><style>.cls-1{fill:#ffe300;}.cls-2{fill:#4ac0e5;}.cls-3{opacity:0.95;}.cls-4{fill:url(#linear-gradient);}.cls-5{fill:#fff;}</style><linearGradient id="linear-gradient" x1="307.54" y1="287.03" x2="252.78" y2="154.17" gradientUnits="userSpaceOnUse"><stop offset="0" stop-color="#004a9f"/><stop offset="1" stop-color="#1e2284"/></linearGradient></defs><title>Asset 2</title><g id="Layer_2" data-name="Layer 2"><g id="visual"><path class="cls-1" d="M30.28,67.65c.53,51,11,98.21,29.2,146.73,6.76,17.13,65,40.4,79.44,43.71,104.59,27,150.9,27,258.84,21.83,21.16-.17,46.41-11.2,56.07-30.31,18.88-44.37,25.86-90.25,17.38-143.27-5.95-25.32-14.74-37.54-59.31-49C267.7,29.62,151.61,22.91,57.38,27.83,42.72,29,30.57,47.56,30.28,67.65Z"/><path class="cls-2" d="M482.06,55.86c8.3,60-.91,115.47-22.77,171.16-8.26,19.46-28.85,40.34-51.15,40-117.46-5.4-233-22.26-346.6-45.58-17.73-4-38.11-17.86-45.72-35.53C1.51,147-3.57,109.85,2.55,69.21,6.82,50.05,13.19,41,46.84,33.07,173.4,11.74,302.1,5.5,432.45,10.48,455.38,11.79,478.05,32.81,482.06,55.86Z"/><g class="cls-3"><path class="cls-4" d="M14.47,46.94C4.3,107.64,9.15,165.35,25.09,225.35c6.24,21.42,23.43,45.51,43.44,46.75,109.54,2.64,224.32-8.08,343.85-27.33,19.27-3.55,41.45-18.82,49.48-39.53,14.92-45.59,19.58-89.15,11.83-136.5-5.11-22-12.21-32.46-48.3-41.69A1607.54,1607.54,0,0,0,58.79,1.62C39.19,2.92,19,23.86,14.47,46.94Z"/></g></g><g id="content"><path class="cls-5" d="M82.89,74.24A5.68,5.68,0,0,0,84,77.43a6.29,6.29,0,0,0,5,2c3.31,0,5.29-1.46,5.29-3.88a3.24,3.24,0,0,0-1.81-3c-.9-.43-2-.73-6.46-1.77-4-.86-5.34-1.38-6.93-2.5A9.68,9.68,0,0,1,75,60c0-6.63,5.34-10.81,13.83-10.81,5.47,0,9.65,1.68,12,4.91a12,12,0,0,1,2.16,5.17l-9.14,1c-.51-2.8-2.06-4-5.34-4-2.63,0-4.56,1.42-4.56,3.4a3,3,0,0,0,2,2.76c.86.39.86.39,5.95,1.42a20.53,20.53,0,0,1,7,2.46,9.61,9.61,0,0,1,4.66,8.78,10.81,10.81,0,0,1-3,7.93c-2.5,2.41-6.29,3.66-11.33,3.66a20.35,20.35,0,0,1-9.6-2.11,10.22,10.22,0,0,1-4.66-5.51,16.21,16.21,0,0,1-.94-4Z"/><path class="cls-5" d="M116.27,50.07a43.88,43.88,0,0,0-.34,6.51v12.1L120.66,64a27.06,27.06,0,0,0,3.75-4.35h11.46c-1.68,1.46-2.2,1.93-4.52,4.22l-6.25,6,7.19,10.51a63.27,63.27,0,0,0,4,5.51h-11a32.62,32.62,0,0,0-2.85-5.77L119.2,74.8,116,77.9v1.72a31.8,31.8,0,0,0,.34,6.29h-8.78a47.16,47.16,0,0,0,.34-6.5V56.58a49.65,49.65,0,0,0-.34-6.51Z"/><path class="cls-5" d="M139.66,65.41c-1.85-4.31-2-4.7-2.58-5.77h9.34a29.3,29.3,0,0,0,1.68,5.55l4,10,3.83-9.78a25.59,25.59,0,0,0,1.85-5.72h9.35c-1.08,2.24-1.08,2.24-2.58,5.77l-9.87,22.78c-1.72,4-4.82,5.91-9.73,5.91a25.81,25.81,0,0,1-5.91-.74l1-6.84a6.57,6.57,0,0,0,3.36.94,3.65,3.65,0,0,0,3.49-2l.91-1.85Z"/><path class="cls-5" d="M169.64,93.71a54.23,54.23,0,0,0,.35-6.29v-21a52.28,52.28,0,0,0-.35-6.76h8.49V61.1c0,.26,0,.6,0,.82a12.82,12.82,0,0,1,8.84-3.06,12.57,12.57,0,0,1,9.13,3.32c2.28,2.28,3.44,5.68,3.44,10s-1.29,8-3.74,10.43a12.41,12.41,0,0,1-8.88,3.4,15.5,15.5,0,0,1-5.81-1.12,10.25,10.25,0,0,1-3-2c0,.39,0,1,0,1.55v3a44.89,44.89,0,0,0,.34,6.25ZM189.2,77.9a7.71,7.71,0,0,0,1.89-5.6c0-4.39-2.32-6.94-6.37-6.94A7.11,7.11,0,0,0,185,79.54,6,6,0,0,0,189.2,77.9Z"/><path class="cls-5" d="M209.75,75.19c.43,3.49,2.45,5.34,5.85,5.34a6.28,6.28,0,0,0,4.36-1.6,4.26,4.26,0,0,0,1.29-2.19l7.49,2.11a12.36,12.36,0,0,1-2.84,4.43C223.44,85.7,220,87,215.73,87s-7.53-1.21-10-3.67a14.65,14.65,0,0,1-3.92-10.51c0-8.52,5.47-14.17,13.7-14.17,6.72,0,11.41,3.66,12.92,10.08a31,31,0,0,1,.65,5.64,8.47,8.47,0,0,0,0,.87Zm11.2-6c-.61-2.76-2.46-4.22-5.43-4.22s-4.91,1.38-5.64,4.22Z"/><path class="cls-5" d="M246.15,65.8a15.63,15.63,0,0,0,2.67.17h1c.6-.73,1-1.21,1.55-2a52.92,52.92,0,0,0-5.51-6.41l3-5.3L250,53.52a27.43,27.43,0,0,0,2.5-6.07l5.73,2a20.56,20.56,0,0,0-.9,1.85,50.67,50.67,0,0,1-3.71,6.63c.43.56.56.73,1,1.3a44.05,44.05,0,0,0,3.88-7.07l4.82,2.71c-.35.52-.35.52-2,3.23-.61,1-1.43,2.2-2.8,4.1l3.27-1c.9,2.63,1.2,3.62,1.68,5.52.09-1.73.09-1.77.09-3V55.37c0-1.59-.05-3.19-.13-4.44a32.63,32.63,0,0,0,4.17.18h2.16a24.5,24.5,0,0,0,1.12-3.62l6.72.77c-.48,1.34-.65,1.77-1.08,2.85h4.09a31.71,31.71,0,0,0,4.22-.18,44.15,44.15,0,0,0-.17,4.53v8.18a37.91,37.91,0,0,0,.17,4.31l-1.93-.09,4,3.49a44.68,44.68,0,0,1-5.25,4.74,23,23,0,0,0,5.77,5.17,23,23,0,0,0-3.71,6.07,22.2,22.2,0,0,1-6.84-9c0,.47.08.91.08,1.12,0,.69.13,2,.13,2.33v1.89c0,3.28-1.72,4.52-6.29,4.52-.64,0-2,0-2.84-.08a19,19,0,0,0-.91-4.48,25.86,25.86,0,0,1-3.44,4,24.62,24.62,0,0,0-4.05-4.92A19,19,0,0,0,261.61,81l-2.71.39a67.66,67.66,0,0,0-.61-8.35l3.06-.65c.48,2.89.78,5.17,1,7.88a11.8,11.8,0,0,0,2.88-5.12h-.9a8.55,8.55,0,0,0-2,.13v-4.4l-2,.78c-.09-.52-.09-.52-.17-1.08-1.16.13-2,.22-2.54.26V83.8a25.05,25.05,0,0,0,.26,4.78h-6.08a39.3,39.3,0,0,0,.26-4.78V71.31c-1.33,0-1.64,0-2.71.13a14.32,14.32,0,0,0-2.72.26Zm5,7.36c-.18,7.41-.43,10.17-1.38,13.66l-3.92-2.63c.86-2.93,1.12-5.17,1.29-11.55Zm4.6-7.36c1.56-.09,2.29-.09,3.24-.18-.35-1.33-.39-1.42-.91-3C257,64.16,256.87,64.37,255.79,65.8Zm8.84,3.79h3.31a15.78,15.78,0,0,0,1.77-.09L271,71.35V67.82h-3.32c-1.12,0-2.88,0-3.92.13.05.3.05.3.35,1.64ZM271,74.15a2.07,2.07,0,0,0-.13.61,29.24,29.24,0,0,1-3.06,7.62,14.45,14.45,0,0,0,1.9.13c1,0,1.29-.22,1.29-1Zm-1.46-16.84h8.87V55.76h-8.87Zm0,5.81h8.87V61.49h-8.87Zm7.62,4.7a16,16,0,0,0,1.51,3.83,20.63,20.63,0,0,0,3.83-3.79c-.95,0-1.25,0-1.81,0Z"/><path class="cls-5" d="M311.62,80.53h10.64a62.38,62.38,0,0,0,6.72-.3v7.15a60.4,60.4,0,0,0-6.59-.3h-26c-2.2,0-4.61.08-6.85.3V80.23a63.33,63.33,0,0,0,6.85.3h8.1V54a43.27,43.27,0,0,0-.26-5.42h7.62a51.27,51.27,0,0,0-.26,5.42v5.78h9.22c2,0,3.66-.09,5.51-.26v6.93c-1.89-.17-3.57-.26-5.51-.26h-9.22Z"/><path class="cls-5" d="M336.22,64.5c0-.9,0-1.33,0-2.5a12.88,12.88,0,0,1-2.07.74,23.27,23.27,0,0,0-2.67-6.29,42.39,42.39,0,0,0,10.21-3.92,24.44,24.44,0,0,0,6.63-4.87h7.45a27.2,27.2,0,0,0,8,5.13,47.88,47.88,0,0,0,9.52,3.27,24.08,24.08,0,0,0-2.63,6.42c-1.07-.39-1.37-.48-2.32-.82v7.5a30.92,30.92,0,0,0,.17,3.83c-1.34-.09-2.63-.13-4.35-.13H340.4c-1.81,0-2.84,0-4.35.13a31.55,31.55,0,0,0,.17-3.79Zm1.77,14c0-1.85-.05-3.18-.18-4.56,1.42.08,2.72.13,4.61.13h19.9c2,0,3.23,0,4.31-.13a31,31,0,0,0-.17,4.52v4.65a42.56,42.56,0,0,0,.26,5.43h-6.51V87.12h-16V88.5h-6.5a41.5,41.5,0,0,0,.26-5.26Zm25.93-17.87h1.85c-1.94-.86-3.19-1.42-5.17-2.42v1.38c-1.16-.08-2.24-.13-3.27-.13h-9.52a24.65,24.65,0,0,0-3.45.13V58.17c-1.85,1-2.93,1.6-4.78,2.46ZM342,64.42v4.65h2.84a15.42,15.42,0,0,0-2.11-3.4l2.71-1.25Zm2.19,14.43h16V77.68h-16Zm0,4.43h16v-1.2h-16Zm2.59-18.86a14.07,14.07,0,0,1,1.94,3.23l-2.93,1.42h3.79V64.42ZM356,55.5a27.28,27.28,0,0,1-4-3,23.74,23.74,0,0,1-3.45,3Zm-1.21,8.92v4.65h3.79l-2.93-1.38a18.46,18.46,0,0,0,1.94-3.27Zm7.71,4.65V64.42h-3.7l3,1.29a19.7,19.7,0,0,1-2.07,3.36Z"/><path class="cls-5" d="M389.2,60.67a24.14,24.14,0,0,0-3.36-.13h-7.36a18.71,18.71,0,0,0-3.15.13V55a20.82,20.82,0,0,0,3.15.17h7.28a23.81,23.81,0,0,0,3.44-.13Zm-13.31,27.7c.13-1.42.22-2.89.22-4.22V77.47c0-1.29,0-2.33-.13-3.36a23.33,23.33,0,0,0,2.76.09h7c1.42,0,1.42,0,2.84-.09,0,.73,0,1.21,0,3.32v6.8c0,1.34,0,2.07.08,3.45h-5V86.52h-2.33v1.85Zm.61-39.63a19.78,19.78,0,0,0,3.06.17h5.77a20.1,20.1,0,0,0,3.1-.17V54a27.64,27.64,0,0,0-3.1-.13h-5.77a27.19,27.19,0,0,0-3.06.13Zm0,13.09a25.13,25.13,0,0,0,3.1.09h5.43a30.2,30.2,0,0,0,3.27-.09V66.7a32.37,32.37,0,0,0-3.27-.09h-5.43a26.72,26.72,0,0,0-3.1.09Zm0,6.12a26.72,26.72,0,0,0,3.1.09h5.43a30.61,30.61,0,0,0,3.27-.09v4.87a32.37,32.37,0,0,0-3.27-.09h-5.43c-1.64,0-2.28,0-3.1.09Zm4.78,13.61h2.37V78.85h-2.37Zm31.19.6a11.33,11.33,0,0,0,.51-2.84,12.66,12.66,0,0,0,3.62,2.37,12.56,12.56,0,0,1-1.12,4.61,3.19,3.19,0,0,1-2.84,2,6.94,6.94,0,0,1-4.13-1.42,15.85,15.85,0,0,1-1.94-2.07,40.38,40.38,0,0,1-5,3,20,20,0,0,0-3-4.43,26.31,26.31,0,0,0,5.47-2.63,28.83,28.83,0,0,1-1.51-5.56h-4.09v1.34l3.49-.43v4.13c-1.85.3-1.85.3-3.49.52v3c0,3.53-1.42,4.61-6.08,4.61-.38,0-1.07,0-2.15-.09a17.69,17.69,0,0,0-.95-4.91,16.7,16.7,0,0,0,2.63.22c.91,0,1.12-.17,1.12-.86V81.48l-3.27.38-.56-4.78a4.49,4.49,0,0,0,.64,0c.48,0,1.55,0,3.19-.17V75.14h-1.2a24.67,24.67,0,0,0-2.63.13v-5a22.27,22.27,0,0,0,2.75.13h1.08v-1c-1.29.09-1.46.09-2.37.13a12.14,12.14,0,0,0-1.42-3h.47a23.91,23.91,0,0,0,8.66-1.25h-5.6a31.47,31.47,0,0,0-3.44.13V61.06a20.45,20.45,0,0,0,3.44.17h5.9V60.07h-4.26a29.27,29.27,0,0,0-3.4.13V56.45c1.07.08,2,.13,3.4.13h4.26V55.41h-5.25c-1.29,0-2.28.05-3.4.13V51.11a24.87,24.87,0,0,0,3.4.17h1.08A20.12,20.12,0,0,0,393,48.65l6-1.25a26,26,0,0,1,2,3.88h2.75a20.53,20.53,0,0,0,1.64-4l6.16,1.2c-.43.95-.52,1.08-1.38,2.76h1.17a23.26,23.26,0,0,0,3.36-.17v4.43c-1.12-.08-2.07-.13-3.36-.13h-6.42v1.17h4.95c1.42,0,2.28,0,3.36-.13V60.2c-1-.09-2.07-.13-3.36-.13h-4.95v1.16h6.89a15.58,15.58,0,0,0,3.53-.22v4.53a24.16,24.16,0,0,0-3.44-.18h-.22a24.06,24.06,0,0,1,3.45,3.19l-2.76,1.9a15,15,0,0,0,3.14-.22v5.13a18,18,0,0,0-3.4-.22h-.6l3.19,2.29c-.26.25-.26.25-2,2.11-.6.6-1.08,1.07-2.11,2a3.92,3.92,0,0,0,1,1,1.17,1.17,0,0,1,.43.17C412.42,82.42,412.42,82.42,412.51,82.16Zm-1.68-11.71a20.4,20.4,0,0,0-3.32-3.32l2.89-1.77H399.07L401.61,68c-1.77.51-1.81.51-3.1.81v1.6H402l-.26-4.18,5.6-.09c0,1,0,1.55,0,1.86,0,.77,0,1.33.09,2.41Zm-2.93,4.69a19.44,19.44,0,0,0,.56,2.33,7.88,7.88,0,0,0,2.15-2.33Z"/><path class="cls-5" d="M74.44,179.05a48,48,0,0,0,.26-6V144.59a47.68,47.68,0,0,0-.21-5.08,45.56,45.56,0,0,0,5.12.21h28.6a43.65,43.65,0,0,0,5-.21,44.39,44.39,0,0,0-.21,5.08v28.47a51.38,51.38,0,0,0,.26,6h-7v-1.72H81.38v1.72Zm29-33.86a16.69,16.69,0,0,1,1.21,2.12c.43-.05.6-.05,1.08-.09v5.08a32.81,32.81,0,0,0-4-.17H99a42,42,0,0,0,.81,6.63,18.83,18.83,0,0,0,1.68-5.55l4.53,2.15a39.17,39.17,0,0,1-4.4,9.3c.48,1.17.86,1.81,1.08,1.81s.56-1.33.82-3.79a13.83,13.83,0,0,0,3.23,3c-.73,3-1.08,3.92-2,4.91a3.26,3.26,0,0,1-2.46,1.16c-1.76,0-2.71-.64-4.13-2.88a19.77,19.77,0,0,1-3.88,3.23,17.21,17.21,0,0,0-2.76-3.23c-1.46.34-2.11.47-3.18.69l-3.41.56-1.33.21c-.61.13-.65.13-1.17.26l-.86-5.47.86,0c.48,0,2.46-.13,4.27-.3a53.58,53.58,0,0,0,7.67-1.08v2c.69-.6,1-.86,1.68-1.55a40.8,40.8,0,0,1-1.68-7.45c-.13-.69-.26-2.24-.48-4.65H86a25,25,0,0,0-3.84.22v-5.22a21.25,21.25,0,0,0,3.79.26h7.63a8.61,8.61,0,0,0-.13-1.38H99c-.08.56-.08.74-.13,1.38h1.94a7.2,7.2,0,0,0-.77-1.2l2.49-1H81v27h25.76v-27ZM83.06,156.44c0-1.12,0-2.11-.13-3.06.82,0,1.64.09,2.58.09h5.34c1.17,0,2-.05,2.68-.09,0,.56-.09,1.38-.09,2.84v4.27a22.85,22.85,0,0,0,.09,3.1c-.78-.05-1.21-.05-2.2-.05H85.51a17.4,17.4,0,0,0-2.58.09c.08-1,.13-1.89.13-3.36Zm4.13,3.1h2.29V157.3H87.19Z"/><path class="cls-5" d="M132.08,161.18c.34,0,.34,0,.95.08a18.53,18.53,0,0,0-2.85-4.69,23.81,23.81,0,0,0,3.28-2.11,12.37,12.37,0,0,0-1.68-1.55c-.26.21-.39.34-.78.64a10.85,10.85,0,0,0-1.12-2.2c-.51,1.47-.69,2-1.33,3.62,2.15,3.28,2.8,5.3,2.8,8.79,0,3.19-1,5.3-3.06,6.12a7.43,7.43,0,0,1-3.4.51c0-3.87-.18-4.73-1-5.9v8.75c0,2.45.09,4.82.22,6h-6.46a55.17,55.17,0,0,0,.26-6V144.51c0-2.2,0-3.11-.13-4.7a22.85,22.85,0,0,0,2.84.13h5.69a24.17,24.17,0,0,0,3.57-.17l2.72,2.67a4.51,4.51,0,0,0-.43,1c0,.09-.26.91-.69,2.54a19.39,19.39,0,0,0,3.4-6.5,7.06,7.06,0,0,0,.39-1.42l6.24.82a9.78,9.78,0,0,0-.69,1.46h.91c1.55,0,2.45,0,3.44-.13a15.76,15.76,0,0,0,1.6,4.74V140c.86.08,1.59.12,2.5.12h3.1a11.37,11.37,0,0,0,2.54-.17l2.76,3.66a19.2,19.2,0,0,0-1.43,2.67,46,46,0,0,1-3.48,5.73,20.64,20.64,0,0,0,5.29,2.72,26.35,26.35,0,0,0-2.88,6.42,37,37,0,0,1-5-3.49v2.19a16.86,16.86,0,0,0-2.28-.08h-8.27c-.69,0-1.25,0-2,.08v-2.06a25.43,25.43,0,0,1-4.44,3.44c.52,0,1.16,0,2.28,0h17.36a19.93,19.93,0,0,0,3.36-.17v6.16a29,29,0,0,0-3.75-.17h-5.9v6.55c0,2.67-.6,4.05-2,4.69-1.08.48-2.41.61-5.77.61a17.91,17.91,0,0,1-2-.09,17.57,17.57,0,0,0-.9-4.82,28.29,28.29,0,0,1-5,5,23.24,23.24,0,0,0-4.23-4.82c3.58-2.24,5.13-3.79,6.68-6.72l5.3,2.07a23.88,23.88,0,0,1-1.81,3.14,16.11,16.11,0,0,0,2.37.22c1,0,1.21-.18,1.21-1v-4.82h-5.52a12.45,12.45,0,0,0-2.84.13Zm-8.19-7a34.93,34.93,0,0,0,2.2-8.4h-2.2Zm0,10a6.84,6.84,0,0,0,1,.13c.82,0,1.08-.43,1.08-1.85a12.57,12.57,0,0,0-2.12-7Zm13.53-13.65c-.47-.43-1.08-.86-1.89-1.47-.39.44-.61.74-1.08,1.25.64.52,1,.82,1.81,1.6C136.73,151.44,137,151.18,137.42,150.58Zm1-5.47c-.17.26-.48.77-.73,1.16.43.26,1.2.82,1.76,1.25a19.43,19.43,0,0,0,1-2.41Zm8.57,9.39a24.08,24.08,0,0,1-3.27-4.78,22.3,22.3,0,0,1-3,4.78Zm1.55-9.22c-.47,0-1,0-1.55.09a20.25,20.25,0,0,0,2,3.14,15.46,15.46,0,0,0,1.73-3.23Zm3.75,22.14a15.12,15.12,0,0,0,5.64,5.77,24.25,24.25,0,0,0-3.27,5.6,24.36,24.36,0,0,1-7.67-9.09Z"/><path class="cls-5" d="M174.77,155.23c-.73.35-1.08.52-2.15,1a21.63,21.63,0,0,0-1.6-4.13c-.56,0-.77-.05-1.33-.05v5.73c.86-.26,1.2-.34,2.24-.69v5.82c-1.77.56-1.77.56-2.24.69v10.29c0,4.53-1.17,5.39-7.24,5.39-.39,0-.91,0-1.59-.05a16.85,16.85,0,0,0-1.43-6.28c.95.12,2.07.21,2.59.21,1.33,0,1.51-.17,1.51-1.33v-6.55a8.66,8.66,0,0,1-1.12.3c-.39.09-1.55.43-2,.56l-.9-6.72a26,26,0,0,0,4.05-.43V152h-.87c-1,0-1.76.05-2.67.13V146a12.54,12.54,0,0,0,2.67.17h.87v-3a29,29,0,0,0-.22-4.44h6.59a29.62,29.62,0,0,0-.21,4.44v3h.81a5.78,5.78,0,0,0,.74,0l2.93-2.46v-4.22a17.84,17.84,0,0,0,3,.17h8a19.07,19.07,0,0,0,2.75-.12,8.09,8.09,0,0,0,1.43,2.8,12.19,12.19,0,0,0,2.8-3.36l3.61,2.88c-.64.65-.69.73-1.93,2a14.64,14.64,0,0,1-1.56,1.59c.43.34.56.47,1,.78a15.28,15.28,0,0,0,3.1-3.75l3.61,2.75c-1,1.08-2.28,2.42-3,3.15a37.56,37.56,0,0,0,3.92,1.59,18,18,0,0,0-2.89,5.73,10.09,10.09,0,0,0,2.41,1,10.33,10.33,0,0,1-.64,3.75c-.56,1-2.07,1.5-4.7,1.5-3.44,0-4.05-.34-4.05-2.41v-3.79h-1.33a15,15,0,0,1-.82,4.52,9.37,9.37,0,0,1-1.38,2.68h6.46a14.45,14.45,0,0,0,3.15-.22l2.75,3.62a9.33,9.33,0,0,0-.82,1.2,24.66,24.66,0,0,1-3.27,5.13,17.7,17.7,0,0,0,4.78,1.34,14.93,14.93,0,0,0-2.32,5.38,23.34,23.34,0,0,1-6.81-2.89,23.32,23.32,0,0,1-6.81,3,13.36,13.36,0,0,0-2-4.26,4.16,4.16,0,0,1-2.11,3,8.93,8.93,0,0,1-4.22.87h-2.5a20.54,20.54,0,0,0-1.42-6.21,17.38,17.38,0,0,0,3.27.39c1.21,0,1.73-.34,1.94-1.29.09-.39.17-1.38.3-3h-4.09a21,21,0,0,0-2.11.08,63.39,63.39,0,0,0,1.68-11,21.54,21.54,0,0,0,2.2.13h2.88v-1.86h-1.42c-.51,0-1.2.05-2.15.09Zm-3-4.95c.9-.39,1.42-.65,2.24-1.08a18.34,18.34,0,0,0-2.24-2.45Zm3.83-5.77a22.77,22.77,0,0,1,1.94,2.32,11.82,11.82,0,0,0,2.32-2.32h-4.26Zm8.74,18.17a12.46,12.46,0,0,0,2.33.18,11.9,11.9,0,0,0-3.14-2.42c0,1.34,0,1.51.08,2.24a11.86,11.86,0,0,0-2.19-.17h-3.32c0,.26,0,.26-.13,1,0,.17,0,.22-.17.95h3.4a15.22,15.22,0,0,0,2.28-.17c-.08.86-.13,1.42-.21,3.7a49.58,49.58,0,0,1-.56,6.29,16.11,16.11,0,0,0,4.09-1.46,35.47,35.47,0,0,1-2.71-3.41l3.74-1.85H186.7a21.39,21.39,0,0,0-2.33.13Zm-3.79-11.15a19,19,0,0,0,3.11-.18,18.34,18.34,0,0,0-.13,2.24v5.91c1.07-1.47,1.55-3.58,1.55-6.68,0-.78-.05-1.21-.09-1.72a18.46,18.46,0,0,0,2.46.08h2.71a22.19,22.19,0,0,1-4.91-5.21,22.85,22.85,0,0,1-4.95,5.56Zm8.23,16a12.8,12.8,0,0,0,2.46,2.37,15.92,15.92,0,0,0,1.94-2.37Zm6.38-10.25c0,.34.21.47.69.47.68,0,.81-.34.9-2.45-.56-.26-.73-.35-1.59-.82Z"/><path class="cls-5" d="M214.92,146.44c-1.51,0-3.06.09-5,.26v-6.85a29.69,29.69,0,0,0,4.87.26h8a33.13,33.13,0,0,0,3.83-.17c0,1.21-.08,1.94-.08,2.76a34.77,34.77,0,0,0,5.51,18.86A33.14,33.14,0,0,0,244,172.46a21.39,21.39,0,0,0-4.74,6.81,38.45,38.45,0,0,1-8.78-7.89,32.6,32.6,0,0,1-7-12.79,34.28,34.28,0,0,1-6.29,12.06,37.85,37.85,0,0,1-10.08,8.66,20.62,20.62,0,0,0-4.61-6.2,30.84,30.84,0,0,0,7.32-5.21,30.35,30.35,0,0,0,8-13.06,38.2,38.2,0,0,0,1.42-8.4Z"/><path class="cls-5" d="M253.94,144.12c-2,0-3.23,0-4.78.13v-5.09a51.35,51.35,0,0,0,5.43.26h23.13a48.78,48.78,0,0,0,5.39-.26v5.09c-1.51-.09-2.67-.13-4.7-.13h-9.3v1.12h10.46c3.41,0,4.49-.05,5.95-.13a28.08,28.08,0,0,0-.17,3.79v2.93a20.8,20.8,0,0,0,.21,3.57H279.4v-5.73H269.11v3.62a29.54,29.54,0,0,0,.17,4h-6.85a36.79,36.79,0,0,0,.17-4v-3.62h-9.73v5.73h-6.16a21.37,21.37,0,0,0,.21-3.57V148.9a29.32,29.32,0,0,0-.17-3.79c1.42.08,2.54.13,5.95.13h9.9v-1.12Zm28.39,25.71A23.6,23.6,0,0,0,286.6,171c-.31,4-.69,5.47-1.81,6.5-1.38,1.29-3.79,1.64-11.85,1.64-8.79,0-10.21-.52-10.21-3.79v-2.67h-6.55v1.89h-6.54a42.63,42.63,0,0,0,.26-4.87v-7.28a34.22,34.22,0,0,0-.22-4.48,39.62,39.62,0,0,0,4.44.18H278a38.69,38.69,0,0,0,4.52-.18,40,40,0,0,0-.17,4.53Zm-28.26-19.25a11.41,11.41,0,0,0,1.86.08h3.61a18.14,18.14,0,0,0,1.86-.08v2.84a12.22,12.22,0,0,0-1.86-.08h-3.61a13.79,13.79,0,0,0-1.86.08Zm0,3.7a9.41,9.41,0,0,0,1.86.09h3.61a9.64,9.64,0,0,0,1.86-.09v2.85a9.64,9.64,0,0,0-1.86-.09h-3.61c-.61,0-1.25,0-1.86.09Zm2.2,7.8v1.38h6.46v-1.38Zm0,5v1.42h6.46v-1.42Zm12.79-3.62H276v-1.38h-6.9Zm0,5H276v-1.42h-6.9Zm0,4.87c0,.43.18.6.69.77a33.75,33.75,0,0,0,4.74.22,16.84,16.84,0,0,0,4.78-.43c.43-.18.61-.52.74-1.25H269.06Zm1.34-22.79a10.51,10.51,0,0,0,1.85.08h4.14a7.86,7.86,0,0,0,1.85-.08v2.84a.92.92,0,0,0-.39,0,13.49,13.49,0,0,0-1.46,0h-4.14a14,14,0,0,0-1.85.08Zm0,3.7a9.81,9.81,0,0,0,1.85.09h4.14a9.3,9.3,0,0,0,1.85-.09v2.8a10.44,10.44,0,0,0-1.85-.08h-4.14a12.77,12.77,0,0,0-1.85.08Z"/><path class="cls-5" d="M289.44,145.63a19.8,19.8,0,0,0,3.49.21h9a32.11,32.11,0,0,0,3.49-.13v5.69a21,21,0,0,0-3.4-.13h-9.09a26.8,26.8,0,0,0-3.49.17Zm7.28,33.64h-6.16a39,39,0,0,0,.17-4.05V168a25.63,25.63,0,0,0-.17-3.23,31.87,31.87,0,0,0,3.19.13h8.87a12.88,12.88,0,0,0,2.63-.13,23.49,23.49,0,0,0-.09,2.85v7.88a20.08,20.08,0,0,0,.13,3.19h-5.9V177.5h-2.67Zm-6-39.68a30,30,0,0,0,3.92.18h6.46a29.84,29.84,0,0,0,3.92-.18v5c-1.07-.08-2.11-.12-3.92-.12h-6.46c-1.72,0-2.75,0-3.92.12Zm.13,13a19.55,19.55,0,0,0,2.59.09h9.09a16.71,16.71,0,0,0,2.45-.09v4.91a21.42,21.42,0,0,0-2.45-.08h-9.09a23.66,23.66,0,0,0-2.59.08Zm0,6.12a24,24,0,0,0,2.59.08h9a19.94,19.94,0,0,0,2.5-.08v4.91a19.14,19.14,0,0,0-2.58-.09h-9.05a19.81,19.81,0,0,0-2.5.09Zm5.69,13.78h2.84v-2.84h-2.84ZM314,147c-2.41.31-3.53.39-6.59.65a23.32,23.32,0,0,0-2.07-6c8.36-.26,16.59-1.63,20.38-3.44l3.49,5.81c-.39.13-.39.13-1.34.39a59.36,59.36,0,0,1-7.45,1.59v4.48h3.88a39.32,39.32,0,0,0,5.08-.26v6.47a41.92,41.92,0,0,0-5-.26h-3.92v4h4.44a27.19,27.19,0,0,0,3.14-.13c-.09.95-.13,2.11-.13,3.62v10.38c0,1.81.09,3.62.22,4.91h-6.59v-1.76h-8.19v1.76H306.8a42.86,42.86,0,0,0,.17-4.65V163.46c0-1.25,0-1.47-.08-3.15,1.07.09,1.85.13,3.18.13H314v-4h-2.89a38.65,38.65,0,0,0-5,.26v-6.47a41.35,41.35,0,0,0,5,.26H314Zm-.69,24.56h8.19v-5.22h-8.19Z"/><path class="cls-5" d="M354.23,157.82c-.13,7.92-.91,13.61-2.37,17.36,2.8-2.24,3.92-5.09,3.92-10.17a6.4,6.4,0,0,0,0-.91l5,.13a6.53,6.53,0,0,0-.13,1.55,27.86,27.86,0,0,1-1.63,9,11.34,11.34,0,0,1-3.62,4.61,15.55,15.55,0,0,0-3.75-3.49,15.25,15.25,0,0,1-1.94,3.62,21.47,21.47,0,0,0-4.22-4,4.4,4.4,0,0,1-1.25,2.06,6.61,6.61,0,0,1-4.48,1.34c-.3,0-1.12,0-2.15-.09a16.7,16.7,0,0,0-1.38-5.9,17.86,17.86,0,0,0,3.19.3c.9,0,1.2-.21,1.46-1.07a28.42,28.42,0,0,0,.65-5h-2.37c-.26.86-.35,1.21-.73,2.33l-5.56-.26a41.64,41.64,0,0,0,2.67-9.43,26.2,26.2,0,0,0-3.19.17v-5.73a26.24,26.24,0,0,0,3.75.17H344a26.08,26.08,0,0,0,3.74-.17V160a25.11,25.11,0,0,0-3.49-.17h-3.49c-.25,1.33-.25,1.33-.38,2.11h3.06a26.15,26.15,0,0,0,3.57-.17c-.09.56-.09.56-.43,6a46.76,46.76,0,0,1-.78,6.51,21.63,21.63,0,0,0,2.63-8.83,122.64,122.64,0,0,0,.43-13.7,44.49,44.49,0,0,0-.21-5.39,32.65,32.65,0,0,0,4.05.18h3.7v-4.44a24.7,24.7,0,0,0-.17-3.36h6.12a7.76,7.76,0,0,0-.18,1.81h4.66a34.15,34.15,0,0,0,4-.22v4.91c-1.12-.08-2.2-.12-3.88-.12h-4.78v1.42h3.28a13.74,13.74,0,0,0,3.27-.22l3.79,3.1a14.81,14.81,0,0,0-.64,1.6c-.74,2.06-1.3,3.36-2,4.95a32.78,32.78,0,0,0-4.61-1.85,9,9,0,0,0,1.42-2.8h-5.51v1.81l1.77-.13a8.3,8.3,0,0,0,2-.3l.17,4.39a4.47,4.47,0,0,0-.73,0c-.39,0-.86,0-1.38.08l-1.85.13V158c0,.82.34.95,2.15.95a6.32,6.32,0,0,0,2.67-.3c.39-.26.48-.65.48-2.63a11.51,11.51,0,0,0,5,1.72c-.25,2.54-.73,3.79-1.76,4.48s-2.5.82-6.46.82c-5.95,0-6.77-.47-6.77-3.75v-1.68Zm-10.17-18a22.93,22.93,0,0,0,3.4-.17,33.48,33.48,0,0,0-.17,3.83V149a32.84,32.84,0,0,0,.17,3.79c-.9-.09-2-.13-3.36-.13H337c-1.42,0-2.67,0-3.57.13a34.88,34.88,0,0,0,.17-3.79v-5.48a35.66,35.66,0,0,0-.17-3.83,26,26,0,0,0,3.61.17Zm-5.17,5.3v2.59h3.41v-2.59Zm17.53,8.32v-2.2h-2.15v2.37Zm10.73,10.72a28.65,28.65,0,0,0-.17,2.89v5.73c0,.6.13.73.69.73s.73-.17.86-.56a12.78,12.78,0,0,0,.26-3.19V168.5a12.08,12.08,0,0,0,4.09,1.55c-.17,4.35-.39,5.69-1.08,6.85-.73,1.33-2,1.76-4.91,1.76-3.83,0-5-.77-5-3.27v-8.31a21.17,21.17,0,0,0-.17-2.89Z"/><path class="cls-5" d="M390,175.3c-.51,0-.77,0-1.46,0h-4.82v3.28h-5.86c.13-1.43.21-2.89.21-4.57v-6.72c0-1.16,0-2.2.05-3a16.4,16.4,0,0,1-1.86,2.28,30,30,0,0,0-1.68-8.18,18.59,18.59,0,0,0,4.57-7.76,22.68,22.68,0,0,0,1.12-4.35h-.78a30.89,30.89,0,0,0-3.7.17v-6.29a34.7,34.7,0,0,0,4.52.22h6.55a37.45,37.45,0,0,0,4.74-.22v6.29a34.07,34.07,0,0,0-4-.17h-.95a35.39,35.39,0,0,1-2.06,7.54h4a19.15,19.15,0,0,0,2.5-.13c-.09,1.29-.09,1.77-.09,2.89v16.62a24.62,24.62,0,0,0,1.3-8.18l3.66,1c-.18,6.42-.61,8.92-2.07,12.32L389.59,176Zm-6.41-5.55h2.06v-10h-2.06Zm24.68-10.3h3.88a19.63,19.63,0,0,0,3.14-.17,26.28,26.28,0,0,0-.09,3.14c0,6.77-.64,12-1.63,14.22-.82,1.85-2.67,2.58-6.64,2.58-1,0-2.06,0-3.36-.12a10,10,0,0,0,.05-1.08,18.14,18.14,0,0,0-.43-4.18l-1.51.3a55,55,0,0,0-.78-8.27l2.8-.52a57.2,57.2,0,0,1,1.17,8,16.46,16.46,0,0,0,1.89.13c1.21,0,1.55-.26,1.85-1.38s.39-2.54.48-7.84H396.53l-4.09.13a33.86,33.86,0,0,0,.21-4.69V144.76a42.73,42.73,0,0,0-.21-5,46.69,46.69,0,0,0,5.42.21H410.1a40.86,40.86,0,0,0,5.17-.26v5.78a29.24,29.24,0,0,0-4.14-.22h-2.84v1.81h2.28a18.36,18.36,0,0,0,2.11-.09,5.84,5.84,0,0,0,.86,0v4.39c-.9-.08-1.81-.12-2.84-.12h-2.41v2h2.5c1,0,1.85-.05,2.75-.13v4.61c-1-.09-1.81-.13-2.75-.13h-2.5Zm-8.49,6.16a68.22,68.22,0,0,1,.65,8.66v1.55l-3.79.52c.17-2.37.21-3.53.21-5.34s0-2.8-.21-5Zm3-20.33H398.9v1.81h3.87Zm0,5.95H398.9v2h3.87Zm-3.87,6.33v1.89h3.87v-1.89Zm8.4,7.23a34.34,34.34,0,0,1,1.42,6.08l-2.76.9a42,42,0,0,0-1.25-6.24Z"/><path class="cls-5" d="M243.61,126.67h-6.8v-9.31H227.5v-6.81h9.31v-9.31h6.8v9.31h9.32v6.81h-9.32Z"/><path class="cls-5" d="M131.22,202.26v-1h3.71v1Zm.29,1.69v-.89h3.18V204Zm0,1.64v-.84h3.18v.84Zm3.79-.84V204h1.46v-.61h1V204h2v-.61h1V204h1.45v.71h-1.45v.65h1.36v.71h-1.36v.65h1.73v.8h-1l.61.61a5.31,5.31,0,0,0-.57.33c-.34.22-.61.37-.79.47l.33.14q.84.27,1.5.42c-.19.31-.36.61-.52.89a5.66,5.66,0,0,1-3.66-2.58c-.31.22-.62.42-.93.61v.94l1.68-.33a3.2,3.2,0,0,0,.05.37v.38c-1,.25-2,.48-3,.7l-.33-.75a1.23,1.23,0,0,0,.28,0l.23-.1v-.7c-.53.16-1,.28-1.4.37-.1-.18-.22-.42-.38-.7v1.78h-.93v-.65h-1.27v.65h-.89v-3.94h3.09v2.07a8.6,8.6,0,0,0,2.77-.94h-2.34v-.8h1.64v-.65h-1.32v-.71h1.32v-.65Zm-3.56-4.22v-.89h2.72v.89Zm.75,6.84v1.5h1.27v-1.5Zm2.67-6.47v-.79h3.1v-.8h1.07v.8h3.14v.79Zm.28,2.44v-1.87h3v1.87Zm.89-1.26v.7h1.27v-.7Zm1.46,2.67v.65h2v-.65Zm0,1.36v.65h2v-.65Zm1.31-2.77v-1.87h3v1.87Zm1,5.11a9.78,9.78,0,0,0,1.41-.89h-2.2A3.88,3.88,0,0,0,140.08,208.45Zm-.14-6.37v.7h1.27v-.7Z"/><path class="cls-5" d="M143.79,203.06a3.5,3.5,0,0,1-.28-.52l-.33-.51a8.44,8.44,0,0,0,2.53-2.77l1.26.19a.58.58,0,0,1-.14.19,6.45,6.45,0,0,1-.65.94h8v1.07h-1.32v1.83h1.64v1h-1.64v1.92h1.27v1.08H143.74v-1.08h1.41v-1.92h-1.83v-1h1.83v-1.69c-.22.22-.55.54-1,.94A2.3,2.3,0,0,1,143.79,203.06Zm.84,7.41-1.22-.29q.79-1.4,1.17-2.25l1.18.24C145.38,209,145,209.78,144.63,210.47Zm1.59-8.82v1.83h1.13v-1.83Zm0,2.86v1.92h1.13v-1.92Zm1,5.72c-.19-.65-.39-1.31-.61-2l1.17-.14c.06.16.14.39.24.71s.23.62.42,1.21Zm1.22-8.58v1.83h1.12v-1.83Zm0,2.86v1.92h1.12v-1.92Zm1.64,5.63a13.28,13.28,0,0,0-.56-1.36l-.24-.61,1.17-.19.85,1.92Zm.56-8.49v1.83h1.17v-1.83Zm0,2.86v1.92h1.17v-1.92Zm2.58,5.72c-.19-.34-.47-.81-.84-1.4-.16-.29-.29-.5-.38-.66l1.17-.28c.5.78.92,1.45,1.27,2Z"/><path class="cls-5" d="M157.1,205c-.28-.28-.78-.73-1.5-1.36a3.11,3.11,0,0,1-.38-.28l.8-.89c.63.47,1.28,1,2,1.55Zm-.42,5.39-1.31-.42c.31-.81.75-2.17,1.31-4.08a7.39,7.39,0,0,0,1.22.42c-.13.38-.35,1.11-.66,2.21C157,209.31,156.8,209.93,156.68,210.37Zm.79-8.44a8.61,8.61,0,0,1-.65-.6c-.56-.47-1-.82-1.27-1l.85-.89a8.47,8.47,0,0,0,.84.71l1.08.89Zm1.32.38v-1.13h3v-1.92H163v1.92h3v1.13h-3v2.11h3.51v1.12h-3.84c-.88,1.5-1.55,2.6-2,3.29l1.69-.15,1.64-.09L162.91,207l1-.56c.5.62,1.27,1.67,2.3,3.14a2.31,2.31,0,0,1,.19.28l-1.13.66-.61-.89c-1.47.09-3.48.25-6,.46l-.28-1.07.84-.05c.53-.84,1.15-2,1.87-3.38h-2.76v-1.12h3.42v-2.11Z"/><path class="cls-5" d="M169.15,203.9c-.28-.25-.68-.57-1.18-1a7,7,0,0,1-.79-.66l.7-.84c.75.53,1.44,1.05,2.06,1.55Zm-1.41,6.47-.56-1.26c.15-.13.37-.33.65-.61a8.94,8.94,0,0,1,.66-.61V205.4h-1.22v-1.12h2.39v3.65a3.21,3.21,0,0,0,2.81,1.18h6.15a5.67,5.67,0,0,0-.38,1.07q-4.08,0-6,0a4,4,0,0,1-3.14-1.22A7.82,7.82,0,0,0,167.74,210.37Zm1.59-8.81a21.84,21.84,0,0,0-1.82-1.5c.06,0,0,0-.14-.14l.75-.84c.87.65,1.54,1.17,2,1.54Zm1.13.89v-.89h3.28v-.84h-1.27c-.62,0-1.1,0-1.45,0v-.09a3.69,3.69,0,0,0-.19-.8q4.13-.09,6.66-.23l.23.89-2.15.09c.22,0,0,0-.7,0v.89h3.32v.89h-2.86a7.44,7.44,0,0,0,3.19,1.31c-.12.32-.26.64-.42,1a7.68,7.68,0,0,1-3.23-1.69v1.22h-1.13v-1.22a10.38,10.38,0,0,1-3.28,1.73,9.81,9.81,0,0,0-.47-.89,9.72,9.72,0,0,0,3.28-1.45Zm4.36,4.45.42-1.4h-1.78a3.82,3.82,0,0,1-2.3,3.23c-.25-.28-.51-.56-.79-.84,1.28-.63,1.93-1.42,2-2.39h-1.17v-.85h5.39l-.28,1.08h1.55c0,.6-.08,1.11-.14,1.55a1.36,1.36,0,0,1-1.5,1.26h-1.69c0-.12-.08-.31-.14-.56a3.37,3.37,0,0,0-.09-.37c.4,0,.92,0,1.54,0,.47,0,.72-.15.75-.47a3.73,3.73,0,0,0,0-.6H176l-.1.32Z"/><path class="cls-5" d="M181.15,204a15.68,15.68,0,0,0-1.32-1.12l-.65-.56.75-.8,1.4,1.12.66.52Zm-1.46,6.33-.51-1.26c.47-.44.9-.83,1.31-1.18V205.5h-1.22v-1.13h2.35v3.47a2.75,2.75,0,0,0,2.71,1.27q3,0,6.29,0a2.38,2.38,0,0,0-.15.37,3.29,3.29,0,0,0-.23.7h-3.66c-.93,0-1.76,0-2.48,0a3.54,3.54,0,0,1-3-1.22A12.31,12.31,0,0,0,179.69,210.37Zm1.88-8.53c-.69-.62-1.36-1.19-2-1.69l.75-.79a8.43,8.43,0,0,1,1,.79c.47.35.82.61,1,.8Zm1,6.7v-5.25h.75v-3.51h6v3.51h.75v3.94c0,.85-.4,1.28-1.31,1.31h-.56a6.8,6.8,0,0,1-.75.05,2.74,2.74,0,0,1-.1-.47c-.06-.25-.11-.42-.14-.51h.52a4.74,4.74,0,0,0,.51,0c.5,0,.74-.18.71-.65v-2.86h-5.25v4.4Zm1.83-7.87v2.62h1v-1.78h2.81v-.84Zm.19,6.84v-2.62H188v2.62Zm.94-1.83v1h1.59v-1Zm.93-3.32v.93h1.78v-.93Z"/><path class="cls-5" d="M191.55,206.53l-.28-.94.47-.05q.62-.93,1.17-1.92l-.56-.42c-.63-.5-1.09-.86-1.41-1.08l.61-.7.42.28a26,26,0,0,0,1.13-2.44l1.08.38c-.53.94-1,1.81-1.5,2.62l.33.24.42.28c.09-.19.23-.45.42-.8s.33-.64.42-.8l.94.47c-.41.69-1.1,1.77-2.06,3.24a5.9,5.9,0,0,1-.38.61,5.34,5.34,0,0,0,.56-.05,2.34,2.34,0,0,0,.52,0l-.33-.84.75-.23c.41.93.7,1.67.89,2.2l-.75.33-.23-.61-.56,0v4.27h-.94v-4.17h-.24A5,5,0,0,0,191.55,206.53Zm.38,3.37-.75-.14a21.83,21.83,0,0,0,.42-2.58l.7.1a14.05,14.05,0,0,1-.28,1.92C192,209.51,192,209.75,191.93,209.9Zm2.53-.51c-.09-.38-.27-1-.52-1.78a3.41,3.41,0,0,0-.09-.43l.66-.14c.06.25.17.61.32,1.08s.22.86.29,1.08Zm.8,1V199.78h6.93V209c0,.87-.42,1.32-1.36,1.36-.12,0-.32,0-.61,0h-.6c0-.19-.08-.45-.15-.79a1.42,1.42,0,0,0-.09-.33c.38,0,.75,0,1.13,0s.68-.15.65-.56v-7.92h-4.87v9.61Zm1.4-6.75v-.94h.89c-.18-.4-.39-.84-.61-1.31l.89-.24a13.8,13.8,0,0,1,.66,1.46l-.37.09h.7a15.44,15.44,0,0,0,.7-1.55l.94.19-.28.56a5.66,5.66,0,0,1-.38.8h.94v.94Zm0,2.2v-.94h1.46v-1h1.12v1h1.5v.94h-2.53v1.27c0,.28.16.4.47.37h1.83v.94h-2.39c-.57,0-.86-.3-.9-.89v-1.69Z"/><path class="cls-5" d="M203.79,203.67v-3.89h3.84v3.89h-1v1.59h1.12v1.08H206.6v2a2.83,2.83,0,0,0,.61-.1c.31,0,.55-.06.7-.09a6.34,6.34,0,0,0,0,1.08c-.65.09-1.58.25-2.76.47l-1.74.28-.23-1.17.56-.05v-4.17h.94v4l.84-.14v-4.83Zm1.08-2.86v1.83h1.68v-1.83Zm9.32,4.92a11.59,11.59,0,0,1-2.95-1.22,11.91,11.91,0,0,1-3.09,1.36,4.92,4.92,0,0,0-.47-1.08,12.88,12.88,0,0,0,2.62-1,5,5,0,0,1-1.12-1.45,3.76,3.76,0,0,1-.52.61c-.12.16-.22.26-.28.33a2.36,2.36,0,0,0-.14-.24l-.52-.65a12.47,12.47,0,0,0,2-3.14l1.27.14a3.32,3.32,0,0,1-.19.37q-.09.2-.33.66H214v1.08a10,10,0,0,1-1.78,2.34,9.07,9.07,0,0,0,2.44.8A6.54,6.54,0,0,0,214.19,205.73Zm-5.67,4.74V206h5.25v4.5H212.6v-.71h-2.91v.71Zm1.17-3.43v1.79h2.91V207Zm3-5.62h-2.86a6,6,0,0,0,1.41,1.73A6.48,6.48,0,0,0,212.69,201.42Z"/><path class="cls-5" d="M215.69,210.42l-.61-1.27a4.29,4.29,0,0,0,.89-.75,4.76,4.76,0,0,0,.47-.42v-2.44h-1.17v-1.17h2.35v3.56a2.84,2.84,0,0,0,2.62,1.18h6.38a.88.88,0,0,0-.15.28,3.4,3.4,0,0,0-.28.84c-1.68,0-3.75,0-6.18-.09A3.41,3.41,0,0,1,217.1,209a9.34,9.34,0,0,0-1.22,1.26C215.79,210.33,215.72,210.39,215.69,210.42Zm1.5-6.52q-1.08-.84-2-1.5l.65-.89c.6.38,1.3.86,2.11,1.46Zm.33-2.2c-.72-.56-1.4-1.08-2.06-1.55l.7-.84a21.4,21.4,0,0,1,2.11,1.41Zm.8,2.67c-.1-.28-.24-.65-.42-1.12a.16.16,0,0,1-.05-.1,10.29,10.29,0,0,0,2.34-3.93l1.18.23c-.19.5-.4,1-.61,1.45h1.82a7.65,7.65,0,0,0,.71-1.5l1.22.33c-.22.41-.43.8-.61,1.17h2.29v1h-2.48V203H226v.93h-2.25V205H226V206h-2.25v1.12h2.58V208h-6v.51h-1.17v-5.06a4.12,4.12,0,0,0-.38.47Zm2-2.48V203h2.25v-1.08Zm0,2V205h2.25V203.9Zm0,2.07v1.12h2.25V206Z"/><path class="cls-5" d="M237.54,210.28a12.14,12.14,0,0,1-4.36-7,12.69,12.69,0,0,1-5.11,7,2,2,0,0,1-.24-.33l-.65-.84a12.17,12.17,0,0,0,5.25-7.93H229.1V200h4.69q.79,6.42,4.83,9.1A6.14,6.14,0,0,0,237.54,210.28Z"/><path class="cls-5" d="M250.15,202.64a16.27,16.27,0,0,1-2.77-1V202h-5v-.33l-.7.28c-.84.35-1.55.61-2.11.8l-.47-1.08a15.32,15.32,0,0,0,5.39-2.48l1.6,0-.33.28a14.32,14.32,0,0,0,4.83,2c0,.06-.08.16-.14.28C250.32,202.25,250.21,202.51,250.15,202.64Zm-9.94,3.28v-3.28h9.37v3.28Zm.66,4.55v-3.94h8.06v3.94h-1.22v-.38h-5.63v.38Zm.46-7v1.69h3v-1.69ZM243,205c-.09-.1-.26-.25-.51-.47l-.57-.56.66-.52q.14.09.42.33c.38.34.61.56.7.66Zm-.94,2.3v.7h5.63v-.7Zm0,1.35v.61h5.63v-.61ZM245,200.2c-.09.06-.25.16-.47.28a13.83,13.83,0,0,1-1.4.85h3.65A17.91,17.91,0,0,1,245,200.2Zm3.42,3.23h-2.95v1.69h2.95Zm-1.73,1.6-.61-.56c.37-.32.73-.64,1.08-1l.7.52A12.7,12.7,0,0,1,246.68,205Z"/><path class="cls-5" d="M251.23,202.26v-1H255v1Zm.28,3.38v-.89h3.18v.89Zm0-1.69v-.89h3.14V204Zm0,6.42v-4h3.14v4h-.89v-.65h-1.31v.65Zm.19-9.84v-.89h2.77v.89Zm.75,6.8v1.54h1.31v-1.54Zm8.86,3a1.29,1.29,0,0,1-1.27-.75.92.92,0,0,0-.14-.28,8.51,8.51,0,0,1-1.64.89,6,6,0,0,0-.51-.8,9.93,9.93,0,0,0,1.83-.79,8.78,8.78,0,0,1-.38-1.74h-1.55v.71l1.18-.14v.89a3,3,0,0,1-.61,0,5.49,5.49,0,0,1-.57,0v.66a1,1,0,0,1-1.12,1.22h-1a.43.43,0,0,0,0-.15,3.69,3.69,0,0,0-.14-.7c.31,0,.56.05.75.05.41,0,.61-.19.61-.56v-.38l-1.5.19-.09-.89,1.59-.19v-.8h-1.59v-.79h1.59v-.61l-1.22,0a3.21,3.21,0,0,0-.05-.42,1.08,1.08,0,0,1-.09-.37c1.19,0,2.28-.05,3.28-.14l.19.75a4.79,4.79,0,0,0-.56,0,2.65,2.65,0,0,0-.57,0v.66h1.5a5.52,5.52,0,0,1,0-.85c0-.37,0-.65,0-.84h1c0,.78,0,1.34.05,1.69h2.34v.79h-2.25a4.27,4.27,0,0,0,.19,1.13,13,13,0,0,0,1.08-1l.65.51a10.7,10.7,0,0,1-1.4,1.36,1.31,1.31,0,0,0,.14.24l.09.09a.42.42,0,0,0,.38.23c.18,0,.29-.07.33-.32a2.41,2.41,0,0,0,.18-.71v-.14a1.94,1.94,0,0,0,.24.1l.47.18a4,4,0,0,1-.19.89A1.06,1.06,0,0,1,261.35,210.37Zm-6-9.14v-.8H257a10.19,10.19,0,0,0-.75-.93l1.08-.28a6.26,6.26,0,0,1,.66.84,2.89,2.89,0,0,0,.23.28l-.23.09h1.68l-.28-.09a9.19,9.19,0,0,0,.61-.7q.24-.28.33-.42l1,.28-.75.93h1.73v.8h-3v.7H262v.75h-2.63v.66h3.15v.84h-7.27v-.84h3.09v-.66h-2.57v-.75h2.57v-.7Zm6,4.74a5.54,5.54,0,0,0-.57-.71l-.32-.33.61-.51a7.56,7.56,0,0,1,1,1Z"/><path class="cls-5" d="M263.65,210.28v-9.19h1.26c.1-.34.22-.81.38-1.41a3.6,3.6,0,0,1,.09-.42l1.31.19a14.69,14.69,0,0,1-.46,1.64h2v9.14h-1.17v-.84h-2.2v.89Zm1.22-8v2.44h2.2v-2.44Zm0,3.61v2.44h2.2v-2.44Zm5.11,4.36a9.11,9.11,0,0,0-.24-1.17h.84c.41,0,.72.05.94.05.85,0,1.27-.41,1.27-1.22,0-.5.06-1.56.09-3.19,0-1.16.05-2,.05-2.44h-2.58q-.42.94-.84,1.74a1.72,1.72,0,0,1-.28-.19l-.8-.42a19.81,19.81,0,0,0,1.69-4.13l1.26.28a2.87,2.87,0,0,1-.19.52,6.13,6.13,0,0,1-.37,1h3.37q-.09,5.11-.18,7c0,1.41-.64,2.1-2,2.06C271.36,210.22,270.69,210.23,270,210.23Zm1-3.14c-.53-.81-1.11-1.64-1.73-2.48l1-.61c.56.65,1.17,1.45,1.83,2.39Z"/><path class="cls-5" d="M276.07,204.18l-.38-.84h.66a16,16,0,0,0,1.36-1.55,3.14,3.14,0,0,0-.47.05h-.37l-.38-.84h.89c.88-.6,1.69-1.21,2.44-1.83l1.45.28c-.25.19-.7.5-1.36.94l-.75.56q1.5,0,3.66-.09l-1-.66.85-.52c1.06.63,2,1.24,2.95,1.83l-.94.61-.7-.47c-1.78,0-3.59,0-5.44.1l-.79,0,1.07.38-1.17,1.12,2.16-.09-.71-.61.8-.42a2.89,2.89,0,0,0,.28.23c.38.32.66.57.85.75a15.23,15.23,0,0,0,1.45-1.45l1,.38q-.18.18-.66.6l-.65.61c.44,0,1.09,0,2-.09a2,2,0,0,0-.33-.33l-.19-.19.8-.46c.19.15.5.43.94.84l.89.84-.85.57L285,204c-.31,0-.79,0-1.45.05s-1.12,0-1.41,0a13,13,0,0,0,4.46,1.55,4.48,4.48,0,0,0-.47,1.08,12.35,12.35,0,0,1-5.2-2.34,15,15,0,0,1-5.16,2.34,3.66,3.66,0,0,0-.23-.47l-.28-.61a13.94,13.94,0,0,0,4.45-1.59q-1.17,0-2.49.09a4.42,4.42,0,0,0-.56,0A2.61,2.61,0,0,0,276.07,204.18Zm.28,6.38c-.12-.34-.25-.67-.37-1a25.86,25.86,0,0,0,8.62-2.16l.61.89A28.49,28.49,0,0,1,276.35,210.56Zm.66-1.64a4.22,4.22,0,0,0-.43-.8,26.27,26.27,0,0,0,6.57-1.87l.61.7A29.37,29.37,0,0,1,277,208.92Zm.47-1.59c-.1-.19-.24-.44-.43-.75a27.59,27.59,0,0,0,4.64-1.46l.61.71A33.33,33.33,0,0,1,277.48,207.33Z"/><path class="cls-5" d="M295.1,203.11v-.94h1.55v-1.31h-1.83v-1h2.95v6.84h.66v1.08H287.32v-1.08h.75V200.2a22.73,22.73,0,0,0,2.53-.75l.42.89a12.45,12.45,0,0,1-1.83.56v1.18h1.74v1h-1.74v1.31h1.74v.94h-1.74v1.36h2.25v-2.39h1.08v2.39h1v-3h-2.07v-4.31h1.13v1.17h2v1h-2v1.17h2v4h2.07v-1.31H295.1v-.94h1.55v-1.31ZM288,210.47a9.18,9.18,0,0,0-.56-1,28.85,28.85,0,0,0,3.89-1.4l.61,1a10.67,10.67,0,0,0-1.12.42C289.54,209.93,288.6,210.28,288,210.47Zm9.89,0a26.26,26.26,0,0,0-4-1.41l.47-1c.63.18,1.52.48,2.67.89l1.41.42Z"/><path class="cls-5" d="M300.35,201.51v-1h3v-1.22h1.26v1.22h2.63v1h-2.63v1.22H306a17.28,17.28,0,0,0,3-2.81l1,.7a19.23,19.23,0,0,1-2.29,2.11h2.76v1.08h-4.17c-.53.37-1.13.75-1.78,1.12H309v5.54H307.8v-.57h-5.34v.57h-1.27v-3.89c-.53.21-1.08.45-1.64.7,0-.13-.09-.35-.19-.66a5.53,5.53,0,0,0-.23-.61,24.14,24.14,0,0,0,5.2-2.2h-5v-1.08h4v-1.22Zm7.45,4.41h-5.15l-.19.09v1h5.34Zm-5.34,2V209h5.34v-1.08Z"/><path class="cls-5" d="M311.22,201.18V200h11.35v1.17H321v7.32c0,1.12-.56,1.72-1.78,1.78h-2.11c-.06-.38-.14-.77-.23-1.17h1.78c.75,0,1.09-.3,1-1v-6.94Zm1.22,7.18v-5.63h5.3v4.83h-4v.8Zm1.27-4.55v2.67h2.76v-2.67Z"/><path class="cls-5" d="M324,209.86l-.79-1.08,1-.61v-8.44h1.36v7.69c.19-.13.48-.31.89-.56.72-.47,1.31-.85,1.78-1.13.06.53.14,1,.23,1.45-.84.47-2.06,1.19-3.65,2.16C324.44,209.56,324.16,209.73,324,209.86Zm4.64-6.94q-.84-1.54-1.68-3l1.08-.61c.31.47.73,1.17,1.26,2.11.22.37.39.66.52.84Zm5,7.31c-.68-.9-1.36-1.75-2-2.53a10.35,10.35,0,0,1-3.56,2.81,11.3,11.3,0,0,0-.9-1.12q4.69-1.92,4.5-6.56c0-.63.05-1.72.05-3.29H333q0,1.08-.09,2.91v.38a11.82,11.82,0,0,1-.71,3.7c.47.47,1.14,1.22,2,2.25a2.63,2.63,0,0,0,.42.42Z"/><path class="cls-5" d="M336.44,210.42v-5.81a9.91,9.91,0,0,1-1,1.5c0-.25-.1-.58-.19-1s-.06-.5-.09-.65a19.49,19.49,0,0,0,2.15-5.21l1.22.28a19,19,0,0,1-.94,2.72v8.16Zm9.52-.09a12.29,12.29,0,0,1-4.5-1.13,10.79,10.79,0,0,1-2.72,1.31,4.38,4.38,0,0,1-.33-.42c-.19-.28-.34-.5-.47-.66a9.83,9.83,0,0,0,2.44-.84,7.06,7.06,0,0,1-1.36-1.5l.84-.61a7,7,0,0,0,1.36,1.36,3.19,3.19,0,0,0,.52-1.59h-2.91v-3.57h3v-1h-3.28v-1.07h3.28v-1.32h1.27v1.32h3.37v1.07h-3.42v1h3v3.8h-1.22v-.23H343a4.46,4.46,0,0,1-.7,2.2,11.45,11.45,0,0,0,4.21.7C346.29,209.56,346.11,210,346,210.33Zm-4.17-5.11v-.14a.46.46,0,0,0,0-.19v-1.22h-1.78v1.55Zm1.26-.29v.29h1.78v-1.55h-1.78Z"/><path class="cls-5" d="M348.35,210.51a5.41,5.41,0,0,1-.56-.33,5.2,5.2,0,0,1-.61-.37,6.35,6.35,0,0,0,.93-2.11,14.74,14.74,0,0,0,.24-3.09v-4.78h9.56v8.95c.06,1-.45,1.53-1.55,1.5-.4,0-.9.05-1.5.05a3.41,3.41,0,0,1-.09-.43,4.58,4.58,0,0,0-.19-.79,6.31,6.31,0,0,1,.66,0h.61c.56,0,.83-.17.8-.61V207h-3v3.18h-1.26V207h-2.86A7.52,7.52,0,0,1,348.35,210.51Zm1.31-5.9a5.59,5.59,0,0,1-.05.7v.56h2.82V204h-2.77Zm0-3.61v1.87h2.77V201Zm7,0h-3v1.87h3Zm-3,3v1.87h3V204Z"/><path class="cls-5" d="M158.2,224.09v-2.25h-3.56v1.55h-1.17v-2.3h4.73v-.61h-4.08v-.8h9.33v.8h-4v.61h4.73v2.3H163v-1.55h-3.56v2.25Zm1.64,6.09c-1.15,0-1.72-.4-1.69-1.31v-.47h-2.71v.52h-1.18v-4.31h9v3.47l.1-.47c.4.15.78.28,1.12.37a6,6,0,0,1-.33,1.17c-.18.72-.75,1.07-1.68,1Zm-4.64-7.26v-.52h2.44v.52Zm0,1.08v-.57h2.44V224Zm.24,1.4v.75h2.71v-.75Zm0,1.46v.75h2.71v-.75Zm7.73,1.82.05-.28h-3.85v.24c0,.44.27.64.89.61h1.93A.84.84,0,0,0,163.17,228.68Zm-1.08-3.28h-2.72v.75h2.72Zm-2.72,2.21h2.72v-.75h-2.72Zm.61-4.69v-.52h2.44v.52Zm0,1.08v-.57h2.44V224Z"/><path class="cls-5" d="M165.14,222.26v-1h4.55v1Zm.37,1.69v-.89h3.8V224Zm0,1.69v-.94h3.8v.94Zm0,4.69v-3.94h3.8v3.94h-1v-.66h-1.74v.66Zm.28-9.8v-.89h3.29v.89Zm.75,6.84v1.41h1.74v-1.41Zm3.8-6.23a6,6,0,0,0-.19-1.17q2.91,0,5.77-.29l.23,1.13c-.78,0-1.57.08-2.39.14v1.69h2.68v1.08h-2.68v1.68h2.16v5.07h-1.17v-.66h-3.19v.66h-1.17V225.4h2.15v-1.68h-2.62v-1.08h2.62V221Zm1.22,5.34v2.35h3.19v-2.35Z"/><path class="cls-5" d="M177.28,222.64v-1.17h1.08v-2.21h1.08v2.21h.89v1.17h-.89v2l.89-.23v1.22l-.89.23V229c0,.87-.36,1.31-1.18,1.31h-.42a4.26,4.26,0,0,1-.51.05c0-.35-.1-.75-.19-1.22a4.08,4.08,0,0,0,.7,0c.38,0,.55-.11.52-.42v-2.58l-1.13.33-.09-1.26c.37-.1.78-.19,1.22-.29v-2.29Zm3.23,1.73a3.66,3.66,0,0,0-.23-.47,1.31,1.31,0,0,0-.24-.42,7.18,7.18,0,0,0,1.65-1,5.57,5.57,0,0,0-.47-.37,7.5,7.5,0,0,1-.61-.52l.65-.61c.38.28.75.58,1.13.89a12.35,12.35,0,0,0,.8-1.12h-2.63v-.85H184l-.14-.51,1-.05c0,.09.08.25.14.47a5.15,5.15,0,0,0,.24.61l1.59-1,.61.7a.14.14,0,0,0-.09.05c-.72.47-1.28.81-1.69,1a5.37,5.37,0,0,0,.56.65c.28-.18.66-.45,1.13-.79.18-.13.33-.22.42-.28l.66.7a12.64,12.64,0,0,1-1.5.94,5.9,5.9,0,0,0,1.59.79,4.09,4.09,0,0,0-.38,1,9,9,0,0,1-1.26-.66v1.08c0,.19.08.28.23.28h.1c.15,0,.25-.06.28-.28a.77.77,0,0,1,0-.19v-.19a1.42,1.42,0,0,0,.61.19,2,2,0,0,1-.09.61c-.06.38-.34.56-.84.56h-.38c-.56,0-.84-.23-.84-.7v-1h-.94v.32a1.9,1.9,0,0,1-1,1.74l-.29-.28-.37-.33a1.23,1.23,0,0,0,.75-1.31v-1h2a5.52,5.52,0,0,1-1.88-2.29v.09a7.92,7.92,0,0,1-1.73,2.25h.75v2.86h-1.69l-.14,1h1.83c0,.44-.05,1.16-.14,2.16,0,.81-.39,1.22-1.17,1.22h-.57c-.34,0-.59,0-.75,0-.06-.34-.14-.69-.23-1h1.17c.35,0,.53-.14.56-.42a7.05,7.05,0,0,0,.1-1.08h-.94l-.05.38h-1l.37-3.19h1.69V224h-1.08Zm6.85,6c-.47-.38-1-.75-1.5-1.13a7.45,7.45,0,0,1-2.11,1.18,4.06,4.06,0,0,0-.56-.89,8.42,8.42,0,0,0,1.82-.8,11.56,11.56,0,0,0-1.31-1l.61-.7,1.45,1a7.39,7.39,0,0,0,.75-1.13H183.7V226h3.89v1a6.22,6.22,0,0,1-1,1.6l1.5,1Z"/><path class="cls-5" d="M199.45,230.28a12.19,12.19,0,0,1-4.36-7,12.64,12.64,0,0,1-5.11,7,1.61,1.61,0,0,1-.23-.33l-.66-.84a12.17,12.17,0,0,0,5.25-7.93H191V220h4.69q.8,6.42,4.83,9.1A6.14,6.14,0,0,0,199.45,230.28Z"/><path class="cls-5" d="M212.06,222.64a16.6,16.6,0,0,1-2.77-1V222h-5v-.33l-.71.28c-.84.35-1.54.61-2.11.8L201,221.7a15.29,15.29,0,0,0,5.4-2.48l1.59,0-.33.28a14.32,14.32,0,0,0,4.83,2l-.14.28C212.23,222.25,212.12,222.51,212.06,222.64Zm-9.94,3.28v-3.28h9.38v3.28Zm.66,4.55v-3.94h8.06v3.94h-1.22v-.38H204v.38Zm.47-7v1.69h2.95v-1.69Zm1.69,1.6-.52-.47-.56-.56.65-.52a3.86,3.86,0,0,1,.43.33l.7.66Zm-.94,2.3v.7h5.62v-.7Zm0,1.35v.61h5.62v-.61Zm2.9-8.48-.46.28a15,15,0,0,1-1.41.85h3.66A18.06,18.06,0,0,1,206.9,220.2Zm3.43,3.23h-3v1.69h3Zm-1.74,1.6-.61-.56a14.57,14.57,0,0,0,1.08-1l.7.52A10.53,10.53,0,0,1,208.59,225Z"/><path class="cls-5" d="M213.14,222.26v-1h3.8v1Zm.28,3.38v-.89h3.19v.89Zm.05-1.69v-.89h3.14V224Zm0,6.42v-4h3.14v4h-.89v-.65H214.4v.65Zm.18-9.84v-.89h2.77v.89Zm.75,6.8v1.54h1.32v-1.54Zm8.86,3a1.26,1.26,0,0,1-1.26-.75,1.22,1.22,0,0,0-.14-.28,9.15,9.15,0,0,1-1.64.89,7.32,7.32,0,0,0-.52-.8,9.93,9.93,0,0,0,1.83-.79,9.56,9.56,0,0,1-.38-1.74h-1.54v.71l1.17-.14v.89a3,3,0,0,1-.61,0,5.58,5.58,0,0,1-.56,0v.66a1,1,0,0,1-1.13,1.22h-1a.43.43,0,0,0,0-.15,3,3,0,0,0-.14-.7c.32,0,.57.05.75.05.41,0,.61-.19.61-.56v-.38l-1.5.19-.09-.89,1.59-.19v-.8H217v-.79h1.59v-.61l-1.22,0a2.82,2.82,0,0,0,0-.42.93.93,0,0,1-.1-.37c1.19,0,2.28-.05,3.28-.14l.19.75a4.93,4.93,0,0,0-.56,0,2.48,2.48,0,0,0-.56,0v.66h1.5a5.17,5.17,0,0,1-.05-.85c0-.37-.05-.65-.05-.84h1c0,.78,0,1.34.05,1.69h2.35v.79h-2.25a4.34,4.34,0,0,0,.18,1.13,10.47,10.47,0,0,0,1.08-1l.66.51a10.1,10.1,0,0,1-1.41,1.36,2.36,2.36,0,0,0,.14.24l.1.09a.4.4,0,0,0,.37.23c.19,0,.3-.07.33-.32a2.66,2.66,0,0,0,.19-.71v-.14l.23.1.47.18a3.09,3.09,0,0,1-.19.89A1.06,1.06,0,0,1,223.26,230.37Zm-6-9.14v-.8h1.64a7.64,7.64,0,0,0-.75-.93l1.08-.28a5.53,5.53,0,0,1,.66.84,2.89,2.89,0,0,0,.23.28l-.23.09h1.69l-.29-.09a9.19,9.19,0,0,0,.61-.7q.24-.28.33-.42l1,.28-.75.93h1.74v.8h-3v.7h2.62v.75h-2.62v.66h3.14v.84h-7.27v-.84h3.1v-.66h-2.58v-.75h2.58v-.7Zm6.05,4.74a5.23,5.23,0,0,0-.56-.71q-.24-.22-.33-.33l.61-.51a7.56,7.56,0,0,1,1,1Z"/><path class="cls-5" d="M231.79,222.68v1.55a2.71,2.71,0,0,1-1.54,2.67l-.42-.51a2.15,2.15,0,0,0,1.17-1.92h-.94v-1.79Z"/><path class="cls-5" d="M239.11,223.81c-.63-.53-1.3-1.08-2-1.64l.7-.8c.66.47,1.36,1,2.11,1.55Zm-1.46,6.52-.56-1.22c.31-.32.75-.72,1.31-1.22v-2.67h-1.21V224h2.39v3.75a2.77,2.77,0,0,0,2.57,1.32h6.38a6.47,6.47,0,0,0-.38,1.07q-3.09,0-6.32-.09a3.31,3.31,0,0,1-2.77-1.26A15.13,15.13,0,0,0,237.65,230.33Zm1.64-8.77q-.47-.42-1.68-1.41a1.61,1.61,0,0,1-.33-.23l.7-.75c.66.47,1.36,1,2.11,1.55Zm6.15,7c-.07-.31-.15-.61-.24-.89h.89c.44,0,.64-.2.61-.7v-.19h-1.87v1.59H243.7v-1.59h-1.83v1.73H240.7v-6.28h2.58l-.8-.42-1-.51.65-.61h-1.59v-.94h7.17v1l-2.62,1.45h2.76v4.88c0,.94-.4,1.4-1.31,1.4A8.07,8.07,0,0,1,245.44,228.59Zm-3.57-5.44v1h1.83v-1Zm0,1.83v1h1.83v-1Zm4.17-4.26h-3.65l.61.32,1.17.71Zm.66,2.43h-1.87v1h1.87ZM244.83,225v1h1.87v-1Z"/><path class="cls-5" d="M249.14,222.26v-1h4.55v1Zm.37,1.69v-.89h3.8V224Zm0,1.69v-.94h3.8v.94Zm0,4.69v-3.94h3.8v3.94h-1v-.66h-1.73v.66Zm.29-9.8v-.89h3.28v.89Zm.75,6.84v1.41h1.73v-1.41Zm3.79-6.23a6,6,0,0,0-.19-1.17q2.91,0,5.77-.29l.23,1.13c-.78,0-1.57.08-2.39.14v1.69h2.68v1.08h-2.68v1.68h2.16v5.07h-1.17v-.66h-3.19v.66h-1.17V225.4h2.16v-1.68h-2.63v-1.08h2.63V221Zm1.22,5.34v2.35h3.19v-2.35Z"/><path class="cls-5" d="M261.65,230.42v-5.25h4.5v5.25H265v-.66h-2.15v.66Zm1.08-6.42v-4.22h8.16V224Zm.1,2.25v2.53H265v-2.53ZM264,220.9v2h5.62v-2Zm3.42,9.52v-5.25H272v5.25H270.8v-.66h-2.21v.66Zm1.17-4.17v2.53h2.21v-2.53Z"/><path class="cls-5" d="M276.37,223.67v-1.45h-1.31a3.63,3.63,0,0,1-1.12,2.11,10.06,10.06,0,0,0-.8-.8,2.85,2.85,0,0,0,.94-2.58v-1.12a40.26,40.26,0,0,0,4.17-.38l.33.89a2,2,0,0,0-.33,0c-1.44.12-2.47.2-3.1.23v.8h3.52v.8h-1.22v1.45Zm-2.72,6.84-.42-.93,2.44-.43c.81-.09,1.42-.17,1.83-.23l.42.75c-.53.12-1.38.3-2.53.51Q274.22,230.42,273.65,230.51Zm8.07-6.84v-1.45h-1.46a3,3,0,0,1-1,1.73h3.84v4.83h-8.53V224h4.64l-.84-.61a2.56,2.56,0,0,0,.94-2.39v-1.12c1.37-.07,2.81-.18,4.31-.33l.33.89c-.47,0-1.29.09-2.44.19q-.79,0-1.17.09v.75h3.89v.8h-1.5v1.45Zm-5.91,1v.66H282v-.66Zm0,1.31v.66H282V226Zm0,1.36V228H282v-.66Zm8.2,3.1c-1.25-.29-2.67-.57-4.26-.85l.37-.7c.88.12,2.21.33,4,.61-.1,0,0,0,.28.05Z"/><path class="cls-5" d="M294.14,227.28v-.52h-2.91a3.73,3.73,0,0,1-.75,1.74,21.31,21.31,0,0,0,5.95.61,4.32,4.32,0,0,0-.28.61,3.14,3.14,0,0,0-.23.46,18.92,18.92,0,0,1-6.42-.93,12.85,12.85,0,0,1-3.57,1.26c-.06-.09-.15-.25-.28-.47l-.42-.65a16.67,16.67,0,0,0,2.95-.66,7.64,7.64,0,0,1-1.54-1.36l.84-.61h-1.26V221.7h4v-.94h-4.78v-1H296.2v1h-4.73v.94h3.89v5.58Zm-6.71-4.55v1h2.77v-1Zm2.68,3c0-.31,0-.65,0-1h-2.72v1Zm-2.58,1a6.07,6.07,0,0,0,1.73,1.27,1.89,1.89,0,0,0,.71-1.27Zm3.89-2.06a4.21,4.21,0,0,1-.05.52,2,2,0,0,1,0,.51h2.81v-1Zm2.72-2h-2.67v.47a3.61,3.61,0,0,0-.05.56h2.72Z"/><path class="cls-5" d="M297.84,230.47c-.37-.44-.67-.77-.89-1q1.79-2.05,1.78-6.8v-.23h-1.4v-1.17h1.45v-2H300v2h2.58q0,4.59-.15,7.22c0,1.09-.5,1.64-1.5,1.64-.28,0-.75,0-1.4,0a10,10,0,0,0-.24-1.21h1.08a.74.74,0,0,0,.89-.85c.07-1.81.1-3.7.1-5.67H300v.28Q299.91,228.27,297.84,230.47Zm5.77-.29v-9.7H308v9.7h-1.22v-1.07h-2v1.07Zm1.17-8.53V228h2v-6.33Z"/><path class="cls-5" d="M309.23,223.72v-1.08h1.31V221l-1.17.09-.14-1.08c1.1-.06,2.17-.14,3.24-.23l.18,1h-.09a4.74,4.74,0,0,1-1,.09v1.74h1.07v1.08h-1.07v.84c.62.56,1.07,1,1.35,1.27l-.46.93a7.86,7.86,0,0,1-.89-.93v4.64h-1v-4.55a12.6,12.6,0,0,1-1.21,2.44A13.37,13.37,0,0,0,309,227a11.46,11.46,0,0,0,1.46-3.28ZM313,229.9a3.48,3.48,0,0,1-.56-.23l-.33-.14a13,13,0,0,0,.89-1.64l.89.28A18.6,18.6,0,0,1,313,229.9Zm.24-7.26V222h.89a6.38,6.38,0,0,1-.38-.56c-.15-.22-.25-.36-.28-.42l.89-.28a7,7,0,0,1,.66,1l-.75.28H318l-.09,0a4.84,4.84,0,0,1,.56-.79,3.92,3.92,0,0,0,.37-.56l.94.28-.09.09a6.12,6.12,0,0,1-.75,1h1v.66H317.2v.61h3.19v.65h-7.5v-.65H316v-.61Zm0-1.92a1.56,1.56,0,0,0-.09-.43,3.6,3.6,0,0,0-.09-.42q3.23,0,6.89-.19l.18.8-3.42.14c.19.28.39.63.61,1l-.89.28-.52-.84a.56.56,0,0,0-.09-.19l.84-.28c-.37,0-.93,0-1.68,0S313.64,220.69,313.26,220.72Zm-.18,5.57v-.65h5.53V225h-5.16v-.66h6.28v1.27h.61v.65h-.61v1.22H316.5l.89,1-.75.51c-.28-.37-.6-.75-.94-1.12l.56-.38h-2.81v-.65h5.16v-.57Zm2.57,3.94c-1,0-1.48-.37-1.45-1.22v-1.08h1v.9c0,.4.2.59.7.56h1q.75,0,.84-.42a4.26,4.26,0,0,0,.19-.71,8.77,8.77,0,0,0,.94.33c0,.13-.08.28-.14.47s-.07.23-.1.33c-.12.59-.61.87-1.45.84Zm4.08-.47a5.78,5.78,0,0,0-.51-.89c-.19-.34-.33-.59-.43-.75l.85-.37c.09.15.22.37.37.65s.32.5.57.94Z"/><path class="cls-5" d="M321.61,224.33V223.2H332v1.13h-4.36V226h3.89v1.12h-3.89v2c2,0,3.61,0,4.83-.05-.12.35-.25.74-.37,1.17-1.69,0-3.39,0-5.11-.09a3.91,3.91,0,0,1-3.47-1.73,12.49,12.49,0,0,1-1.6,2.11l-.42-.47c-.18-.22-.33-.38-.42-.47a6.54,6.54,0,0,0,2.06-4.45l1.22.14A13.24,13.24,0,0,1,324,227a3.44,3.44,0,0,0,2.39,2v-4.64Zm9.14-1.65v-1h-7.88v1h-1.22v-2.15h4.6v-1.27h1.31v1.27H332v2.15Z"/><path class="cls-5" d="M335.72,220.06l-.24,6.89h-1.17l-.23-6.89Zm-.05,9.61h-1.55v-1.5h1.55Z"/></g></g></svg>